# xmcd
# 
# Track frame offsets:
#     182
#     19805
#     37572
#     53007
#     74332
#     93762
#     112552
#     133587
# 
# Disc length: 2007
# 
# Revision: 5
# Processed by: cddbd v1.5.2PL0 Copyright (c) Steve Scherf et al.
# Submitted via: fre:ac v1.0.17
# 
DISCID=5207d508
DTITLE=Juan Luis Guerra y 4.40 - Mientras Más Lo Pienso...
DYEAR=1987
DGENRE=Merengue
TTITLE0=Guavaberry
TTITLE1=Tú
TTITLE2=Amor De Conuco
TTITLE3=No Me Acostumbro
TTITLE4=Me Enamoro De Ella
TTITLE5=¡Ay! Mujer
TTITLE6=Amigos
TTITLE7=Rock-A-Fiesta
EXTD=@RetroMBJ - Melvin Brian
EXTT0=
EXTT1=
EXTT2=
EXTT3=
EXTT4=
EXTT5=
EXTT6=
EXTT7=
PLAYORDER=
